<svg xmlns="http://www.w3.org/2000/svg" xmlns:xlink="http://www.w3.org/1999/xlink" zoomAndPan="magnify" preserveAspectRatio="xMidYMid meet" version="1.2" viewBox="112.33 91.63 140.56 136.47"><defs><clipPath id="9c1ea6b542"><path d="M 112.265625 91.628906 L 228.515625 91.628906 L 228.515625 228.128906 L 112.265625 228.128906 Z M 112.265625 91.628906 "/></clipPath></defs><g id="306b5be21e"><g style="fill:#bf9b30;fill-opacity:1;"><g transform="translate(231.651347, 180.238371)"><path style="stroke:none" d="M 21.234375 -4.90625 C 21.234375 -3.050781 20.632812 -1.546875 19.4375 -0.390625 C 18.25 0.753906 16.632812 1.328125 14.59375 1.328125 C 12.5625 1.328125 10.945312 0.753906 9.75 -0.390625 C 8.5625 -1.546875 7.96875 -3.050781 7.96875 -4.90625 C 7.96875 -6.769531 8.5625 -8.273438 9.75 -9.421875 C 10.945312 -10.566406 12.5625 -11.140625 14.59375 -11.140625 C 16.632812 -11.140625 18.25 -10.566406 19.4375 -9.421875 C 20.632812 -8.273438 21.234375 -6.769531 21.234375 -4.90625 Z M 21.234375 -4.90625 "/></g></g><g clip-rule="nonzero" clip-path="url(#9c1ea6b542)"><path style=" stroke:none;fill-rule:nonzero;fill:#bf9b30;fill-opacity:1;" d="M 221.792969 158.808594 C 220.199219 156.949219 218.542969 155.300781 216.855469 153.835938 C 212.808594 150.324219 208.574219 147.851562 204.617188 146.082031 C 209.925781 143.699219 213.941406 140.769531 216.734375 137.351562 C 220.414062 132.804688 222.253906 127.890625 222.253906 122.578125 C 222.253906 115.742188 220.660156 110.246094 217.46875 106.125 C 214.277344 102.007812 210.167969 98.890625 205.199219 96.847656 C 200.230469 94.773438 194.988281 93.398438 189.464844 92.695312 C 183.945312 91.996094 178.886719 91.628906 174.285156 91.628906 L 128.03125 91.628906 L 128.03125 95.167969 L 131.589844 95.167969 C 136.925781 95.167969 140.332031 96.785156 141.804688 100.023438 C 143.277344 103.257812 144.011719 107.53125 144.011719 112.839844 L 144.011719 138.96875 C 144.164062 138.910156 144.320312 138.847656 144.472656 138.757812 C 145.699219 138.265625 146.894531 137.777344 148.152344 137.382812 C 149.378906 136.925781 150.636719 136.589844 151.894531 136.191406 C 153.152344 135.855469 154.410156 135.488281 155.699219 135.246094 C 157.140625 134.910156 158.550781 134.636719 159.992188 134.390625 L 159.992188 99.59375 C 161.769531 99.136719 163.886719 98.710938 166.308594 98.34375 C 168.734375 97.976562 171.0625 97.824219 173.332031 97.824219 C 178.058594 97.824219 182.902344 98.617188 187.808594 100.203125 C 192.71875 101.792969 196.890625 104.355469 200.261719 107.898438 C 203.636719 111.4375 205.324219 116.046875 205.324219 121.695312 C 205.324219 127.003906 203.941406 131.429688 201.152344 134.972656 C 199.679688 136.832031 198.023438 138.421875 196.152344 139.792969 C 196.152344 139.792969 196.121094 139.824219 196.121094 139.824219 C 193.945312 141.410156 191.183594 142.113281 188.484375 141.808594 C 188.117188 141.777344 187.839844 141.746094 187.6875 141.714844 C 186.429688 141.59375 185.140625 141.441406 183.882812 141.351562 C 182.597656 141.257812 181.339844 141.167969 180.050781 141.136719 C 177.503906 141.015625 174.929688 141.046875 172.351562 141.105469 C 171.0625 141.199219 169.777344 141.199219 168.488281 141.320312 C 167.84375 141.382812 167.199219 141.410156 166.554688 141.472656 L 164.625 141.6875 C 162.046875 142.023438 159.5 142.417969 156.957031 143 C 155.667969 143.273438 154.410156 143.609375 153.152344 143.945312 C 151.894531 144.339844 150.636719 144.675781 149.410156 145.136719 C 148.152344 145.53125 146.957031 146.050781 145.730469 146.507812 C 144.535156 147.027344 143.308594 147.546875 142.140625 148.125 C 140.945312 148.675781 139.808594 149.316406 138.644531 149.957031 C 137.511719 150.628906 136.375 151.300781 135.300781 152.0625 C 134.199219 152.765625 133.15625 153.558594 132.082031 154.351562 L 130.546875 155.605469 C 130.027344 156 129.535156 156.460938 129.046875 156.886719 C 127.082031 158.625 125.210938 160.519531 123.523438 162.535156 C 121.835938 164.546875 120.273438 166.625 118.863281 168.820312 L 118.339844 169.644531 L 117.851562 170.46875 C 117.511719 171.050781 117.175781 171.570312 116.867188 172.179688 C 116.5625 172.789062 116.222656 173.398438 115.917969 174.011719 C 115.640625 174.621094 115.335938 175.261719 115.089844 175.871094 C 114.96875 176.175781 114.84375 176.484375 114.722656 176.820312 C 114.691406 176.941406 114.628906 177.03125 114.597656 177.152344 C 114.539062 177.367188 114.445312 177.550781 114.382812 177.765625 C 114.324219 177.886719 114.292969 178.039062 114.261719 178.160156 C 114.199219 178.34375 114.140625 178.527344 114.078125 178.710938 C 114.046875 178.863281 113.984375 179.015625 113.953125 179.136719 C 113.894531 179.320312 113.863281 179.472656 113.800781 179.65625 C 113.769531 179.808594 113.710938 179.960938 113.679688 180.113281 C 113.617188 180.296875 113.585938 180.449219 113.527344 180.632812 C 113.496094 180.785156 113.433594 180.9375 113.402344 181.089844 C 113.371094 181.273438 113.3125 181.425781 113.28125 181.609375 L 113.1875 182.070312 C 113.15625 182.25 113.125 182.402344 113.097656 182.585938 C 113.066406 182.738281 113.035156 182.890625 113.003906 183.046875 C 112.972656 183.257812 112.914062 183.472656 112.882812 183.6875 C 112.851562 183.839844 112.851562 183.992188 112.820312 184.113281 C 112.789062 184.265625 112.757812 184.386719 112.757812 184.539062 C 112.726562 184.695312 112.726562 184.847656 112.699219 185 C 112.667969 185.183594 112.667969 185.363281 112.636719 185.515625 C 112.605469 185.671875 112.605469 185.824219 112.574219 185.976562 C 112.542969 186.160156 112.542969 186.339844 112.511719 186.523438 C 112.511719 186.675781 112.484375 186.800781 112.484375 186.953125 C 112.484375 187.136719 112.453125 187.320312 112.453125 187.5 C 112.453125 187.652344 112.421875 187.777344 112.421875 187.929688 C 112.421875 188.113281 112.390625 188.296875 112.390625 188.507812 C 112.390625 188.660156 112.390625 188.785156 112.359375 188.9375 C 112.359375 189.121094 112.359375 189.332031 112.328125 189.515625 C 112.328125 189.636719 112.328125 189.789062 112.328125 189.914062 C 112.328125 190.097656 112.328125 190.308594 112.328125 190.492188 C 112.328125 190.613281 112.328125 190.738281 112.328125 190.890625 C 112.328125 190.949219 112.328125 191.011719 112.328125 191.074219 C 112.328125 191.285156 112.328125 191.5 112.328125 191.746094 C 112.484375 197.054688 113.648438 202.304688 115.796875 207.160156 C 116.347656 208.410156 116.960938 209.632812 117.667969 210.820312 C 117.695312 210.851562 117.726562 210.914062 117.726562 210.945312 C 117.910156 211.277344 118.125 211.613281 118.308594 211.921875 C 118.371094 212.011719 118.433594 212.101562 118.496094 212.195312 C 118.707031 212.5625 118.953125 212.925781 119.199219 213.292969 C 119.230469 213.355469 119.261719 213.386719 119.292969 213.445312 C 119.507812 213.75 119.722656 214.058594 119.964844 214.390625 C 120.027344 214.484375 120.089844 214.574219 120.179688 214.667969 C 120.425781 215.003906 120.703125 215.371094 120.980469 215.675781 C 121.007812 215.703125 121.039062 215.765625 121.070312 215.796875 C 121.316406 216.101562 121.5625 216.40625 121.835938 216.683594 C 121.929688 216.773438 121.992188 216.863281 122.050781 216.957031 C 122.359375 217.292969 122.636719 217.597656 122.941406 217.902344 C 122.972656 217.933594 122.972656 217.964844 123.003906 217.964844 C 123.277344 218.269531 123.585938 218.542969 123.863281 218.820312 C 123.953125 218.910156 124.046875 218.972656 124.105469 219.0625 C 124.414062 219.367188 124.75 219.671875 125.089844 219.949219 C 127.113281 221.71875 129.351562 223.246094 131.742188 224.433594 C 132.941406 225.046875 134.199219 225.5625 135.425781 226.023438 L 136.34375 226.359375 C 136.652344 226.449219 136.988281 226.539062 137.296875 226.632812 C 137.910156 226.847656 138.554688 227 139.195312 227.152344 C 141.742188 227.761719 144.378906 228.066406 147.019531 228.097656 C 149.65625 228.128906 152.261719 227.824219 154.839844 227.273438 C 157.386719 226.695312 159.871094 225.839844 162.199219 224.710938 C 164.53125 223.578125 166.738281 222.175781 168.765625 220.558594 C 172.8125 217.324219 176.003906 213.109375 178.117188 208.472656 C 178.117188 208.441406 178.148438 208.441406 178.148438 208.410156 C 179.070312 206.394531 179.804688 204.289062 180.296875 202.152344 C 180.941406 199.375 181.246094 196.535156 181.214844 193.699219 C 181.15625 191.257812 181.09375 188.386719 180.050781 186.066406 C 179.742188 185.363281 179.34375 184.722656 178.824219 184.144531 C 178.457031 183.746094 178.027344 183.382812 177.535156 183.046875 C 177.199219 182.832031 176.832031 182.648438 176.460938 182.496094 C 176.277344 182.433594 176.125 182.375 175.941406 182.3125 C 175.386719 182.128906 174.804688 182.039062 174.191406 182.039062 C 170.941406 181.945312 168.027344 184.265625 167.507812 187.441406 C 166.800781 191.5625 169.992188 195.164062 174.007812 195.164062 C 175.417969 195.164062 176.738281 194.734375 177.78125 193.972656 C 177.660156 196.78125 177.167969 199.558594 176.308594 202.214844 L 176.125 202.214844 C 174.558594 202.183594 172.996094 202.089844 171.371094 201.9375 C 170.421875 201.847656 169.4375 201.726562 168.457031 201.601562 C 165.542969 201.207031 162.753906 200.566406 160.023438 199.742188 L 160.023438 153.863281 C 161.925781 153.558594 163.855469 153.347656 165.789062 153.195312 L 167.445312 153.070312 L 169.132812 153.011719 C 170.234375 152.949219 171.371094 152.980469 172.503906 152.980469 C 174.746094 153.039062 176.984375 153.101562 179.253906 153.347656 C 180.386719 153.4375 181.492188 153.589844 182.625 153.710938 C 183.761719 153.863281 184.867188 154.015625 186 154.199219 C 188.238281 154.566406 190.480469 154.996094 192.6875 155.484375 C 193.363281 155.636719 194.003906 155.789062 194.679688 155.972656 C 196.582031 156.460938 198.390625 157.191406 200.078125 158.167969 C 200.109375 158.199219 200.140625 158.199219 200.171875 158.230469 C 205.507812 161.34375 209.339844 166.5625 210.324219 172.636719 C 210.566406 174.164062 210.691406 175.75 210.691406 177.460938 C 210.691406 185.488281 207.746094 191.621094 201.886719 195.863281 C 197.316406 199.160156 191.277344 201.175781 183.730469 201.910156 C 183.730469 202 183.699219 202.0625 183.667969 202.152344 C 183.148438 204.289062 182.441406 206.394531 181.523438 208.410156 C 186.460938 208.320312 191.460938 207.890625 196.550781 207.097656 C 202.285156 206.210938 207.5625 204.65625 212.378906 202.398438 C 217.164062 200.167969 221.058594 196.933594 224 192.75 C 226.976562 188.570312 228.449219 183.167969 228.449219 176.574219 L 228.449219 176.453125 C 228.417969 169.949219 225.996094 163.722656 221.792969 158.808594 Z M 173.457031 208.347656 C 171.460938 211.613281 168.855469 214.484375 165.820312 216.742188 C 164.039062 218.054688 162.078125 219.152344 160.054688 220.039062 C 158.027344 220.894531 155.882812 221.503906 153.703125 221.902344 C 151.527344 222.265625 149.347656 222.421875 147.140625 222.296875 C 144.964844 222.175781 142.785156 221.808594 140.699219 221.199219 C 140.179688 221.046875 139.65625 220.894531 139.136719 220.710938 C 138.890625 220.621094 138.613281 220.527344 138.367188 220.4375 L 137.601562 220.132812 C 136.589844 219.703125 135.640625 219.246094 134.71875 218.726562 C 132.878906 217.6875 131.160156 216.40625 129.628906 214.910156 C 126.5625 211.949219 124.199219 208.257812 122.636719 204.257812 C 122.511719 203.953125 122.390625 203.648438 122.296875 203.34375 C 122.265625 203.25 122.234375 203.160156 122.207031 203.070312 C 122.113281 202.761719 121.992188 202.457031 121.898438 202.152344 C 120.917969 198.976562 120.425781 195.621094 120.425781 192.324219 C 120.425781 192.109375 120.425781 191.898438 120.425781 191.652344 C 120.519531 187.378906 121.4375 183.167969 123.1875 179.414062 C 123.402344 178.953125 123.648438 178.496094 123.890625 178.039062 C 124.136719 177.582031 124.414062 177.152344 124.660156 176.695312 C 124.933594 176.238281 125.242188 175.78125 125.546875 175.324219 L 126.007812 174.621094 L 126.5 173.949219 C 127.757812 172.148438 129.167969 170.46875 130.640625 168.851562 C 132.113281 167.234375 133.738281 165.769531 135.425781 164.394531 C 135.855469 164.058594 136.253906 163.695312 136.710938 163.386719 L 138.03125 162.441406 C 138.953125 161.832031 139.808594 161.222656 140.761719 160.671875 C 141.679688 160.089844 142.664062 159.601562 143.613281 159.085938 C 143.734375 159.023438 143.859375 158.960938 144.011719 158.902344 L 144.011719 208.347656 Z M 173.457031 208.347656 "/></g></g></svg>